<svg fill="none" xmlns="http://www.w3.org/2000/svg" viewBox="0 0 100 100"><g stroke-width="10" stroke-linejoin="round"><path d="M50 10l6 4 6-2 4 6h8l1 7 7 1v8l6 4-2 6 4 6-4 6 2 6-6 4v8l-7 1-1 7h-8l-4 6-6-2-6 4-6-4-6 2-4-6h-8l-1-7-7-1v-8l-6-4 2-6-4-6 4-6-2-6 6-4v-8l7-1 1-7h8l4-6 6 2 6-4z" fill="#206020" stroke="#206020"/><path d="M68 21l3 7 6 2 1 7 5 5-2 7 3 6-5 6v7l-6 3-2 7h-8l-5 5-6-2-7 3-5-5h-8l-3-7-6-2-1-7-5-5 2-7-3-6 5-6v-7l6-3 2-7h8l5-5 6 2 7-3 5 5h8z" fill="#393" stroke="#393"/><path d="M69 32l2 7 4 5-2 7 2 6-5 5-2 7-7 2-5 4-7-2-6 2-5-5-7-2-2-7-4-5 2-7-2-6 5-5 2-7 7-2 5-4 7 2 6-2 5 5 7 2z" fill="#40BF40" stroke="#40BF40"/><path d="M50 31l6 11 12 2-9 9 2 12-11-5-11 5 2-12-9-9 12-2 6-11z" fill="#FFC107" stroke="#FFC107"/></g></svg>