<?xml version="1.0" encoding="UTF-8"?>
<svg viewBox="0 0 512 512" xmlns="http://www.w3.org/2000/svg">
<path d="m429.06 0h-346.12c-45.805 0-82.938 37.133-82.938 82.938v346.12c0 45.805 37.133 82.938 82.938 82.938h346.12c45.805 0 82.938-37.133 82.938-82.938v-346.12c0-45.805-37.133-82.938-82.938-82.938z" fill="#b2e59c"/>
<path d="m286.51 0h-203.57c-45.805 0-82.938 37.133-82.938 82.938v346.12c0 45.805 37.133 82.938 82.938 82.938h106.8c-84.059-100.8-52.41-287.09 11.078-359.76 61.309-70.172 80.023-126.34 85.695-152.24z" fill="#9ad880"/>
<path d="m233.47 382.28c-10.516 0-20.66-4.0234-28.328-11.285l-107.89-102.14c-16.527-15.645-17.242-41.727-1.5977-58.254 15.645-16.527 41.723-17.246 58.254-1.5977l77.191 73.07 124.68-138.69c15.215-16.926 41.27-18.309 58.195-3.0977 16.922 15.215 18.309 41.27 3.0938 58.195l-152.95 170.14c-7.4297 8.2617-17.879 13.176-28.984 13.625-0.55469 0.023437-1.1094 0.035156-1.6602 0.035156z" fill="#fff"/>
<path d="m153.91 209c-16.531-15.648-42.609-14.93-58.254 1.5977-15.645 16.527-14.93 42.609 1.5977 58.254l43.746 41.414c3.5742-32.945 11.363-64.723 22.168-92.5z" fill="#ccf8ff"/>
</svg>
